<svg width="49" height="40" viewBox="0 0 49 40" fill="none" xmlns="http://www.w3.org/2000/svg"><g clip-path="url(#clip0)"><path d="M49 11.5789L24.5 23.1579L0 11.5789L24.5 0L49 11.5789Z" fill="#FF6D18"></path><path d="M39.7462 18.2421V29.4737C39.0227 36.4947 8.47919 36.5053 9.1722 29.4737V18.2421L24.4592 25.4316H24.5204H24.5815L39.7462 18.2421Z" fill="#FF6D18"></path><path d="M47.8994 40L46.0649 34.3053C46.3167 34.1102 46.5213 33.8576 46.6628 33.5673C46.8042 33.2769 46.8786 32.9566 46.8802 32.6316C46.8781 32.2642 46.7829 31.9038 46.6041 31.5861C46.4253 31.2685 46.1691 31.0048 45.8611 30.8211V15.3474L43.8228 16.4632V30.8211C43.5148 31.0048 43.2586 31.2685 43.0798 31.5861C42.901 31.9038 42.8058 32.2642 42.8037 32.6316C42.8053 32.9566 42.8797 33.2769 43.0211 33.5673C43.1626 33.8576 43.3672 34.1102 43.619 34.3053L41.7845 40H47.8994Z" fill="#FF6D18"></path></g><defs><clipPath id="clip0"><rect width="49" height="40" fill="white"></rect></clipPath></defs></svg>