<svg width="28" height="28" viewBox="0 0 28 28" fill="none" xmlns="http://www.w3.org/2000/svg">
<path fill-rule="evenodd" clip-rule="evenodd" d="M23.9942 5.32749C24.0809 5.24071 24.1498 5.13769 24.1967 5.02431C24.2437 4.91093 24.2679 4.78941 24.2679 4.66669C24.2679 4.54397 24.2437 4.42245 24.1967 4.30907C24.1498 4.19569 24.0809 4.09267 23.9942 4.00589C23.9074 3.91911 23.8044 3.85028 23.691 3.80331C23.5776 3.75635 23.4561 3.73218 23.3334 3.73218C23.2106 3.73218 23.0891 3.75635 22.9757 3.80331C22.8624 3.85028 22.7593 3.91911 22.6726 4.00589L14 12.6803L5.32749 4.00589C5.24071 3.91911 5.13769 3.85028 5.02431 3.80331C4.91093 3.75635 4.78941 3.73218 4.66669 3.73218C4.54397 3.73218 4.42245 3.75635 4.30907 3.80331C4.19569 3.85028 4.09267 3.91911 4.00589 4.00589C3.91911 4.09267 3.85028 4.19569 3.80331 4.30907C3.75635 4.42245 3.73218 4.54397 3.73218 4.66669C3.73218 4.78941 3.75635 4.91093 3.80331 5.02431C3.85028 5.13769 3.91911 5.24071 4.00589 5.32749L12.6803 14L4.00589 22.6726C3.83063 22.8478 3.73218 23.0855 3.73218 23.3334C3.73218 23.5812 3.83063 23.8189 4.00589 23.9942C4.18114 24.1694 4.41884 24.2679 4.66669 24.2679C4.91454 24.2679 5.15224 24.1694 5.32749 23.9942L14 15.3198L22.6726 23.9942C22.8478 24.1694 23.0855 24.2679 23.3334 24.2679C23.5812 24.2679 23.8189 24.1694 23.9942 23.9942C24.1694 23.8189 24.2679 23.5812 24.2679 23.3334C24.2679 23.0855 24.1694 22.8478 23.9942 22.6726L15.3198 14L23.9942 5.32749Z" fill="#FF6D18"/>
</svg>
