<svg width="30" height="30" viewBox="0 0 30 30" fill="none" xmlns="http://www.w3.org/2000/svg">
<path d="M5.49566 20.3306L14.28 11.685C14.4717 11.4954 14.7304 11.389 15 11.389C15.2696 11.389 15.5284 11.4954 15.72 11.685L24.5044 20.3288C24.6973 20.5183 24.9568 20.6245 25.2272 20.6245C25.4976 20.6245 25.7572 20.5183 25.95 20.3288C26.045 20.2362 26.1205 20.1255 26.172 20.0033C26.2235 19.8811 26.2501 19.7498 26.2501 19.6172C26.2501 19.4846 26.2235 19.3533 26.172 19.2311C26.1205 19.1089 26.045 18.9982 25.95 18.9056L17.1675 10.2619C16.5891 9.6939 15.8107 9.37567 15 9.37567C14.1893 9.37567 13.411 9.6939 12.8325 10.2619L4.05004 18.9056C3.95478 18.9982 3.87907 19.109 3.82736 19.2314C3.77566 19.3538 3.74902 19.4853 3.74902 19.6181C3.74902 19.751 3.77566 19.8825 3.82736 20.0049C3.87907 20.1272 3.95478 20.238 4.05004 20.3306C4.24289 20.5201 4.50246 20.6263 4.77285 20.6263C5.04324 20.6263 5.30281 20.5201 5.49566 20.3306Z" fill="black"/>
</svg>
