<svg width="16" height="11" viewBox="0 0 16 11" fill="none" xmlns="http://www.w3.org/2000/svg">
<path d="M13.8362 0.586244C14.0123 0.410207 14.251 0.31131 14.5 0.31131C14.7489 0.31131 14.9877 0.410207 15.1637 0.586244C15.3398 0.762282 15.4386 1.00104 15.4386 1.24999C15.4386 1.49895 15.3398 1.73771 15.1637 1.91374L6.72621 10.3512C6.63913 10.4386 6.53567 10.5078 6.42178 10.5551C6.30788 10.6023 6.18578 10.6267 6.06246 10.6267C5.93915 10.6267 5.81705 10.6023 5.70315 10.5551C5.58925 10.5078 5.4858 10.4386 5.39871 10.3512L0.711214 5.66374C0.624049 5.57658 0.554906 5.4731 0.507732 5.35921C0.460559 5.24533 0.436279 5.12326 0.436279 4.99999C0.436279 4.87672 0.460559 4.75466 0.507732 4.64078C0.554906 4.52689 0.624049 4.42341 0.711214 4.33624C0.798379 4.24908 0.901858 4.17994 1.01574 4.13276C1.12963 4.08559 1.25169 4.06131 1.37496 4.06131C1.49823 4.06131 1.6203 4.08559 1.73418 4.13276C1.84807 4.17994 1.95155 4.24908 2.03871 4.33624L6.06246 8.36187L13.8362 0.586244Z" fill="#FF6D18"/>
</svg>
