<svg width="159" height="34" viewBox="0 0 159 34" fill="none" xmlns="http://www.w3.org/2000/svg">
<g clip-path="url(#clip0_3_74)">
<path d="M40 9.8421L20 19.6842L0 9.8421L20 0L40 9.8421Z" fill="#FF6D18"/>
<path d="M32.4459 15.5057V25.0526C31.8552 31.0205 6.92179 31.0294 7.48752 25.0526V15.5057L19.9667 21.6168H20.0166H20.0666L32.4459 15.5057Z" fill="#FF6D18"/>
<path d="M39.1015 34L37.604 29.1595C37.8095 28.9937 37.9766 28.779 38.092 28.5322C38.2075 28.2854 38.2683 28.0132 38.2696 27.7369C38.2678 27.4246 38.1901 27.1182 38.0441 26.8482C37.8982 26.5783 37.6891 26.3541 37.4376 26.1979V13.0453L35.7737 13.9937V26.1979C35.5222 26.3541 35.3131 26.5783 35.1672 26.8482C35.0212 27.1182 34.9435 27.4246 34.9418 27.7369C34.9431 28.0132 35.0038 28.2854 35.1193 28.5322C35.2348 28.779 35.4018 28.9937 35.6073 29.1595L34.1098 34H39.1015Z" fill="#FF6D18"/>
</g>
<path d="M46.008 24V11.04H53.144V24H51.336V12.336H47.816V24H46.008ZM55.1323 24V14.752H56.8443V24H55.1323ZM55.1323 13.376V11.584H56.8443V13.376H55.1323ZM58.3245 26.352V22.864C58.6445 22.6187 58.9378 22.3253 59.2045 21.984C59.4712 21.6427 59.7058 21.2107 59.9085 20.688C60.1112 20.1653 60.2712 19.52 60.3885 18.752C60.5058 17.984 60.5698 17.056 60.5805 15.968L60.6125 14.752H64.7885V22.784H65.9085V26.352H64.6605L64.5165 24H59.7165L59.5725 26.352H58.3245ZM59.9885 22.784H63.1405V15.984H61.9405L61.9085 16.32C61.8978 17.4507 61.8392 18.3947 61.7325 19.152C61.6365 19.8987 61.4978 20.512 61.3165 20.992C61.1458 21.4613 60.9432 21.8347 60.7085 22.112C60.4845 22.3893 60.2445 22.6133 59.9885 22.784ZM67.0984 24V14.752H70.8264V15.984H68.8104V24H67.0984ZM74.283 24.128C73.6003 24.128 73.0617 23.9893 72.667 23.712C72.2723 23.4347 71.9897 23.04 71.819 22.528C71.659 22.016 71.579 21.4133 71.579 20.72V18.032C71.579 17.3387 71.659 16.736 71.819 16.224C71.9897 15.712 72.2723 15.3173 72.667 15.04C73.0617 14.7627 73.6003 14.624 74.283 14.624C74.9657 14.624 75.499 14.7627 75.883 15.04C76.2777 15.3173 76.555 15.712 76.715 16.224C76.8857 16.736 76.971 17.3387 76.971 18.032V20.72C76.971 21.4133 76.8857 22.016 76.715 22.528C76.555 23.04 76.2777 23.4347 75.883 23.712C75.499 23.9893 74.9657 24.128 74.283 24.128ZM74.283 22.864C74.6137 22.864 74.843 22.768 74.971 22.576C75.1097 22.384 75.1897 22.1333 75.211 21.824C75.243 21.504 75.259 21.1733 75.259 20.832V17.936C75.259 17.584 75.243 17.2533 75.211 16.944C75.1897 16.6347 75.1097 16.384 74.971 16.192C74.843 15.9893 74.6137 15.888 74.283 15.888C73.9523 15.888 73.7177 15.9893 73.579 16.192C73.4403 16.384 73.355 16.6347 73.323 16.944C73.3017 17.2533 73.291 17.584 73.291 17.936V20.832C73.291 21.1733 73.3017 21.504 73.323 21.824C73.355 22.1333 73.4403 22.384 73.579 22.576C73.7177 22.768 73.9523 22.864 74.283 22.864ZM79.4665 24V16.032H77.7385V14.752H82.9225V16.032H81.1785V24H79.4665ZM86.3924 24.128C85.7097 24.128 85.171 23.9893 84.7764 23.712C84.3817 23.4347 84.099 23.04 83.9284 22.528C83.7684 22.016 83.6884 21.4133 83.6884 20.72V18.032C83.6884 17.3387 83.7684 16.736 83.9284 16.224C84.099 15.712 84.3817 15.3173 84.7764 15.04C85.171 14.7627 85.7097 14.624 86.3924 14.624C87.075 14.624 87.6084 14.7627 87.9924 15.04C88.387 15.3173 88.6644 15.712 88.8244 16.224C88.995 16.736 89.0804 17.3387 89.0804 18.032V20.72C89.0804 21.4133 88.995 22.016 88.8244 22.528C88.6644 23.04 88.387 23.4347 87.9924 23.712C87.6084 23.9893 87.075 24.128 86.3924 24.128ZM86.3924 22.864C86.723 22.864 86.9524 22.768 87.0804 22.576C87.219 22.384 87.299 22.1333 87.3204 21.824C87.3524 21.504 87.3684 21.1733 87.3684 20.832V17.936C87.3684 17.584 87.3524 17.2533 87.3204 16.944C87.299 16.6347 87.219 16.384 87.0804 16.192C86.9524 15.9893 86.723 15.888 86.3924 15.888C86.0617 15.888 85.827 15.9893 85.6884 16.192C85.5497 16.384 85.4644 16.6347 85.4324 16.944C85.411 17.2533 85.4004 17.584 85.4004 17.936V20.832C85.4004 21.1733 85.411 21.504 85.4324 21.824C85.4644 22.1333 85.5497 22.384 85.6884 22.576C85.827 22.768 86.0617 22.864 86.3924 22.864ZM90.6453 24V14.752H93.2373C93.8666 14.752 94.3573 14.8587 94.7093 15.072C95.0719 15.2747 95.3279 15.5467 95.4773 15.888C95.6373 16.2187 95.7226 16.576 95.7333 16.96C95.7439 17.4187 95.6693 17.8293 95.5093 18.192C95.3493 18.5547 95.0186 18.8107 94.5173 18.96C94.9013 19.0347 95.1946 19.1947 95.3973 19.44C95.6106 19.6747 95.7546 19.9573 95.8293 20.288C95.9146 20.6187 95.9573 20.96 95.9573 21.312C95.9573 21.8453 95.8773 22.3147 95.7173 22.72C95.5679 23.1253 95.3013 23.44 94.9173 23.664C94.5439 23.888 94.0106 24 93.3173 24H90.6453ZM92.3253 22.704H92.9333C93.1786 22.704 93.4026 22.672 93.6053 22.608C93.8079 22.5333 93.9679 22.3893 94.0853 22.176C94.2133 21.9627 94.2773 21.6533 94.2773 21.248C94.2773 20.768 94.2186 20.4213 94.1013 20.208C93.9946 19.984 93.8453 19.8453 93.6533 19.792C93.4719 19.7387 93.2586 19.712 93.0133 19.712H92.3253V22.704ZM92.3253 18.48H93.1573C93.4879 18.48 93.7493 18.384 93.9413 18.192C94.1333 18 94.2293 17.6587 94.2293 17.168C94.2293 16.7307 94.1173 16.4267 93.8932 16.256C93.6693 16.0853 93.3653 16 92.9813 16H92.3253V18.48ZM97.2859 24V14.752H98.9979V18.656H99.4779L101.222 14.752H102.982L101.046 19.232L103.014 24H101.222L99.4779 19.68H98.9979V24H97.2859ZM105.319 24.128C104.956 24.128 104.636 24.0267 104.359 23.824C104.081 23.6107 103.863 23.344 103.703 23.024C103.543 22.6933 103.463 22.3467 103.463 21.984C103.463 21.408 103.559 20.9227 103.751 20.528C103.943 20.1333 104.204 19.8027 104.535 19.536C104.876 19.2587 105.265 19.0187 105.703 18.816C106.151 18.6133 106.62 18.416 107.111 18.224V17.568C107.111 17.1947 107.089 16.8853 107.047 16.64C107.004 16.3947 106.913 16.2133 106.775 16.096C106.647 15.968 106.449 15.904 106.183 15.904C105.948 15.904 105.756 15.9573 105.607 16.064C105.468 16.1707 105.367 16.3253 105.303 16.528C105.239 16.72 105.207 16.9493 105.207 17.216V17.68L103.511 17.616C103.532 16.592 103.767 15.84 104.215 15.36C104.663 14.8693 105.356 14.624 106.295 14.624C107.212 14.624 107.863 14.8747 108.247 15.376C108.631 15.8773 108.823 16.6027 108.823 17.552V21.776C108.823 22.064 108.828 22.3413 108.839 22.608C108.86 22.8747 108.881 23.1253 108.903 23.36C108.935 23.584 108.961 23.7973 108.983 24H107.415C107.383 23.8293 107.34 23.616 107.286 23.36C107.244 23.0933 107.212 22.8533 107.191 22.64C107.084 23.0027 106.876 23.344 106.567 23.664C106.268 23.9733 105.852 24.128 105.319 24.128ZM105.991 22.656C106.161 22.656 106.321 22.608 106.471 22.512C106.62 22.416 106.753 22.3093 106.871 22.192C106.988 22.064 107.068 21.9627 107.111 21.888V19.264C106.844 19.4133 106.593 19.5627 106.359 19.712C106.124 19.8613 105.916 20.0213 105.735 20.192C105.564 20.352 105.425 20.5387 105.319 20.752C105.223 20.9547 105.174 21.1893 105.174 21.456C105.174 21.8293 105.244 22.1227 105.383 22.336C105.521 22.5493 105.724 22.656 105.991 22.656ZM113.778 26.352V22.864C114.098 22.6187 114.391 22.3253 114.658 21.984C114.924 21.6427 115.159 21.2107 115.362 20.688C115.564 20.1653 115.724 19.52 115.842 18.752C115.959 17.984 116.023 17.056 116.034 15.968L116.066 14.752H120.242V22.784H121.362V26.352H120.114L119.97 24H115.17L115.026 26.352H113.778ZM115.442 22.784H118.594V15.984H117.394L117.362 16.32C117.351 17.4507 117.292 18.3947 117.186 19.152C117.09 19.8987 116.951 20.512 116.77 20.992C116.599 21.4613 116.396 21.8347 116.162 22.112C115.938 22.3893 115.698 22.6133 115.442 22.784ZM124.955 24.128C124.272 24.128 123.734 23.9893 123.339 23.712C122.944 23.4347 122.662 23.04 122.491 22.528C122.331 22.016 122.251 21.4133 122.251 20.72V18.032C122.251 17.3387 122.331 16.736 122.491 16.224C122.662 15.712 122.944 15.3173 123.339 15.04C123.734 14.7627 124.272 14.624 124.955 14.624C125.638 14.624 126.171 14.7627 126.555 15.04C126.95 15.3173 127.227 15.712 127.387 16.224C127.558 16.736 127.643 17.3387 127.643 18.032V20.72C127.643 21.4133 127.558 22.016 127.387 22.528C127.227 23.04 126.95 23.4347 126.555 23.712C126.171 23.9893 125.638 24.128 124.955 24.128ZM124.955 22.864C125.286 22.864 125.515 22.768 125.643 22.576C125.782 22.384 125.862 22.1333 125.883 21.824C125.915 21.504 125.931 21.1733 125.931 20.832V17.936C125.931 17.584 125.915 17.2533 125.883 16.944C125.862 16.6347 125.782 16.384 125.643 16.192C125.515 15.9893 125.286 15.888 124.955 15.888C124.624 15.888 124.39 15.9893 124.251 16.192C124.112 16.384 124.027 16.6347 123.995 16.944C123.974 17.2533 123.963 17.584 123.963 17.936V20.832C123.963 21.1733 123.974 21.504 123.995 21.824C124.027 22.1333 124.112 22.384 124.251 22.576C124.39 22.768 124.624 22.864 124.955 22.864ZM133.008 24V11.04H134.816V16.64H138.144V11.04H139.952V24H138.144V17.936H134.816V24H133.008ZM141.945 24L142.185 11.04H143.961L146.249 21.552L148.553 11.04H150.313L150.553 24H149.097L148.953 14.592L146.761 24H145.737L143.561 14.592L143.417 24H141.945ZM153.838 24V12.384H151.646V11.04H157.774V12.384H155.646V24H153.838Z" fill="#FF6D18"/>
<defs>
<clipPath id="clip0_3_74">
<rect width="40" height="34" fill="white"/>
</clipPath>
</defs>
</svg>
