<svg width="30" height="30" viewBox="0 0 30 30" fill="none" xmlns="http://www.w3.org/2000/svg">
<path d="M6.32812 15.9375C6.32812 16.124 6.25405 16.3028 6.12218 16.4347C5.99032 16.5665 5.81148 16.6406 5.625 16.6406H2.8125C2.62602 16.6406 2.44718 16.5665 2.31532 16.4347C2.18345 16.3028 2.10938 16.124 2.10938 15.9375C2.10938 15.751 2.18345 15.5722 2.31532 15.4403C2.44718 15.3085 2.62602 15.2344 2.8125 15.2344H3.98438V7.26563H2.8125C2.62602 7.26563 2.44718 7.19155 2.31532 7.05969C2.18345 6.92783 2.10938 6.74898 2.10938 6.5625C2.10938 6.37602 2.18345 6.19718 2.31532 6.06532C2.44718 5.93346 2.62602 5.85938 2.8125 5.85938H4.6875C4.80657 5.85909 4.92377 5.88904 5.0281 5.94644C5.13243 6.00383 5.22048 6.08678 5.28398 6.1875L9.375 12.7359L13.466 6.18985C13.5292 6.08868 13.6172 6.00527 13.7215 5.94746C13.8259 5.88965 13.9432 5.85934 14.0625 5.85938H15.9375C16.124 5.85938 16.3028 5.93346 16.4347 6.06532C16.5665 6.19718 16.6406 6.37602 16.6406 6.5625C16.6406 6.74898 16.5665 6.92783 16.4347 7.05969C16.3028 7.19155 16.124 7.26563 15.9375 7.26563H14.7656V15.2344H15.9375C16.124 15.2344 16.3028 15.3085 16.4347 15.4403C16.5665 15.5722 16.6406 15.751 16.6406 15.9375C16.6406 16.124 16.5665 16.3028 16.4347 16.4347C16.3028 16.5665 16.124 16.6406 15.9375 16.6406H13.125C12.9385 16.6406 12.7597 16.5665 12.6278 16.4347C12.496 16.3028 12.4219 16.124 12.4219 15.9375C12.4219 15.751 12.496 15.5722 12.6278 15.4403C12.7597 15.3085 12.9385 15.2344 13.125 15.2344H13.3594V9.01406L9.97148 14.4352C9.9083 14.5364 9.8204 14.6199 9.71605 14.6778C9.6117 14.7356 9.49433 14.766 9.375 14.766C9.25567 14.766 9.1383 14.7356 9.03395 14.6778C8.9296 14.6199 8.8417 14.5364 8.77852 14.4352L5.39062 9.01406V15.2344H5.625C5.81148 15.2344 5.99032 15.3085 6.12218 15.4403C6.25405 15.5722 6.32812 15.751 6.32812 15.9375ZM19.6875 12.8906H27.1875C27.374 12.8906 27.5528 12.8165 27.6847 12.6847C27.8165 12.5528 27.8906 12.374 27.8906 12.1875C27.8906 12.001 27.8165 11.8222 27.6847 11.6903C27.5528 11.5585 27.374 11.4844 27.1875 11.4844H19.6875C19.501 11.4844 19.3222 11.5585 19.1903 11.6903C19.0585 11.8222 18.9844 12.001 18.9844 12.1875C18.9844 12.374 19.0585 12.5528 19.1903 12.6847C19.3222 12.8165 19.501 12.8906 19.6875 12.8906ZM27.1875 15.2344H19.6875C19.501 15.2344 19.3222 15.3085 19.1903 15.4403C19.0585 15.5722 18.9844 15.751 18.9844 15.9375C18.9844 16.124 19.0585 16.3028 19.1903 16.4347C19.3222 16.5665 19.501 16.6406 19.6875 16.6406H27.1875C27.374 16.6406 27.5528 16.5665 27.6847 16.4347C27.8165 16.3028 27.8906 16.124 27.8906 15.9375C27.8906 15.751 27.8165 15.5722 27.6847 15.4403C27.5528 15.3085 27.374 15.2344 27.1875 15.2344ZM27.1875 18.9844H9.375C9.18852 18.9844 9.00968 19.0585 8.87782 19.1903C8.74595 19.3222 8.67188 19.501 8.67188 19.6875C8.67188 19.874 8.74595 20.0528 8.87782 20.1847C9.00968 20.3165 9.18852 20.3906 9.375 20.3906H27.1875C27.374 20.3906 27.5528 20.3165 27.6847 20.1847C27.8165 20.0528 27.8906 19.874 27.8906 19.6875C27.8906 19.501 27.8165 19.3222 27.6847 19.1903C27.5528 19.0585 27.374 18.9844 27.1875 18.9844ZM27.1875 22.7344H9.375C9.18852 22.7344 9.00968 22.8085 8.87782 22.9403C8.74595 23.0722 8.67188 23.251 8.67188 23.4375C8.67188 23.624 8.74595 23.8028 8.87782 23.9347C9.00968 24.0665 9.18852 24.1406 9.375 24.1406H27.1875C27.374 24.1406 27.5528 24.0665 27.6847 23.9347C27.8165 23.8028 27.8906 23.624 27.8906 23.4375C27.8906 23.251 27.8165 23.0722 27.6847 22.9403C27.5528 22.8085 27.374 22.7344 27.1875 22.7344Z" fill="black"/>
</svg>
